<svg width="65" height="74" viewBox="0 0 65 74" fill="none" xmlns="http://www.w3.org/2000/svg">
<rect x="19.5" width="27.5" height="2.27273" fill="black"/>
<rect x="24.5" y="25" width="22.5" height="2.27273" fill="black"/>
<rect x="24.5" y="31.8182" width="22.5" height="2.27273" fill="black"/>
<rect x="19.5" y="40.9091" width="27.5" height="2.27273" fill="black"/>
<rect x="9.5" y="47.7273" width="35" height="2.27273" fill="black"/>
<rect x="24.5" y="9.0909" width="22.5" height="2.27273" fill="black"/>
<rect x="9.5" y="9.0909" width="10" height="2.27273" fill="black"/>
<rect x="44.5" y="4.54546" width="12.5" height="2.27273" fill="black"/>
<rect x="42" y="40.9091" width="15" height="2.27273" fill="black"/>
<rect x="24.5" y="15.9091" width="22.5" height="2.27273" fill="black"/>
<rect x="16.9999" width="2.5" height="43.1818" fill="black"/>
<rect x="7" y="9.0909" width="2.5" height="40.9091" fill="black"/>
<rect x="54.4999" y="4.54546" width="2.5" height="38.6364" fill="black"/>
<rect x="24.5" y="9.0909" width="2.5" height="9.09091" fill="black"/>
<rect x="24.5" y="25" width="2.5" height="9.09091" fill="black"/>
<rect x="44.5" y="2.27273" width="2.5" height="9.09091" fill="black"/>
<rect x="44.5" y="15.9091" width="2.5" height="9.09091" fill="black"/>
<rect x="44.5" y="31.8182" width="2.5" height="18.1818" fill="black"/>
<path d="M6.71591 68.1761C5.85606 68.1761 5.11553 67.9924 4.49432 67.625C3.87689 67.2538 3.39962 66.733 3.0625 66.0625C2.72917 65.3883 2.5625 64.5985 2.5625 63.6932C2.5625 62.7992 2.72917 62.0114 3.0625 61.3295C3.39962 60.6477 3.86932 60.1155 4.47159 59.733C5.07765 59.3504 5.78598 59.1591 6.59659 59.1591C7.08902 59.1591 7.56629 59.2405 8.02841 59.4034C8.49053 59.5663 8.9053 59.822 9.27273 60.1705C9.64015 60.5189 9.92992 60.9716 10.142 61.5284C10.3542 62.0814 10.4602 62.7538 10.4602 63.5455V64.1477H3.52273V62.875H8.79545C8.79545 62.428 8.70455 62.0322 8.52273 61.6875C8.34091 61.339 8.08523 61.0644 7.75568 60.8636C7.42992 60.6629 7.04735 60.5625 6.60795 60.5625C6.13068 60.5625 5.71402 60.6799 5.35795 60.9148C5.00568 61.1458 4.73295 61.4489 4.53977 61.8239C4.35038 62.1951 4.25568 62.5985 4.25568 63.0341V64.0284C4.25568 64.6117 4.35795 65.108 4.5625 65.517C4.77083 65.9261 5.06061 66.2386 5.43182 66.4545C5.80303 66.6667 6.23674 66.7727 6.73295 66.7727C7.05492 66.7727 7.34849 66.7273 7.61364 66.6364C7.87879 66.5417 8.10795 66.4015 8.30114 66.2159C8.49432 66.0303 8.64205 65.8011 8.74432 65.5284L10.3523 65.8182C10.2235 66.2917 9.99242 66.7064 9.65909 67.0625C9.32955 67.4148 8.91477 67.6894 8.41477 67.8864C7.91856 68.0795 7.35227 68.1761 6.71591 68.1761ZM13.4645 68H11.6009L15.7884 56.3636H17.8168L22.0043 68H20.1406L16.8509 58.4773H16.7599L13.4645 68ZM13.777 63.4432H19.8224V64.9205H13.777V63.4432ZM25.2472 62.8182V68H23.5483V59.2727H25.179V60.6932H25.2869C25.4877 60.2311 25.8021 59.8598 26.2301 59.5795C26.6619 59.2992 27.2055 59.1591 27.8608 59.1591C28.4555 59.1591 28.9763 59.2841 29.4233 59.5341C29.8703 59.7803 30.2169 60.1477 30.4631 60.6364C30.7093 61.125 30.8324 61.7292 30.8324 62.4489V68H29.1335V62.6534C29.1335 62.0208 28.9688 61.5265 28.6392 61.1705C28.3097 60.8106 27.857 60.6307 27.2812 60.6307C26.8873 60.6307 26.5369 60.7159 26.2301 60.8864C25.9271 61.0568 25.6866 61.3068 25.5085 61.6364C25.3343 61.9621 25.2472 62.3561 25.2472 62.8182ZM33.1108 68V59.2727H34.8097V68H33.1108ZM33.9688 57.9261C33.6733 57.9261 33.4195 57.8277 33.2074 57.6307C32.9991 57.4299 32.8949 57.1913 32.8949 56.9148C32.8949 56.6345 32.9991 56.3958 33.2074 56.1989C33.4195 55.9981 33.6733 55.8977 33.9688 55.8977C34.2642 55.8977 34.5161 55.9981 34.7244 56.1989C34.9366 56.3958 35.0426 56.6345 35.0426 56.9148C35.0426 57.1913 34.9366 57.4299 34.7244 57.6307C34.5161 57.8277 34.2642 57.9261 33.9688 57.9261ZM37.0952 68V59.2727H38.7259V60.6932H38.8338C39.0156 60.2121 39.313 59.8371 39.7259 59.5682C40.1387 59.2955 40.633 59.1591 41.2088 59.1591C41.7921 59.1591 42.2808 59.2955 42.6747 59.5682C43.0724 59.8409 43.366 60.2159 43.5554 60.6932H43.6463C43.8546 60.2273 44.1861 59.8561 44.6406 59.5795C45.0952 59.2992 45.6368 59.1591 46.2656 59.1591C47.0573 59.1591 47.7031 59.4072 48.2031 59.9034C48.7069 60.3996 48.9588 61.1477 48.9588 62.1477V68H47.2599V62.3068C47.2599 61.7159 47.099 61.2879 46.777 61.0227C46.455 60.7576 46.0705 60.625 45.6236 60.625C45.0705 60.625 44.6406 60.7955 44.3338 61.1364C44.027 61.4735 43.8736 61.9072 43.8736 62.4375V68H42.1804V62.1989C42.1804 61.7254 42.0327 61.3447 41.7372 61.0568C41.4418 60.7689 41.0573 60.625 40.5838 60.625C40.2618 60.625 39.9645 60.7102 39.6918 60.8807C39.4228 61.0473 39.205 61.2803 39.0384 61.5795C38.8755 61.8788 38.794 62.2254 38.794 62.6193V68H37.0952ZM53.7756 68.1932C53.2225 68.1932 52.7225 68.0909 52.2756 67.8864C51.8286 67.678 51.4744 67.3769 51.2131 66.983C50.9555 66.589 50.8267 66.1061 50.8267 65.5341C50.8267 65.0417 50.9214 64.6364 51.1108 64.3182C51.3002 64 51.5559 63.7481 51.8778 63.5625C52.1998 63.3769 52.5597 63.2367 52.9574 63.142C53.3551 63.0473 53.7604 62.9754 54.1733 62.9261C54.696 62.8655 55.1203 62.8163 55.446 62.7784C55.7718 62.7367 56.0085 62.6705 56.1562 62.5795C56.304 62.4886 56.3778 62.3409 56.3778 62.1364V62.0966C56.3778 61.6004 56.2377 61.2159 55.9574 60.9432C55.6809 60.6705 55.268 60.5341 54.7188 60.5341C54.1468 60.5341 53.696 60.661 53.3665 60.9148C53.0407 61.1648 52.8153 61.4432 52.6903 61.75L51.0938 61.3864C51.2831 60.8561 51.5597 60.428 51.9233 60.1023C52.2907 59.7727 52.7131 59.5341 53.1903 59.3864C53.6676 59.2348 54.1695 59.1591 54.696 59.1591C55.0445 59.1591 55.4138 59.2008 55.804 59.2841C56.1979 59.3636 56.5653 59.5114 56.9062 59.7273C57.2509 59.9432 57.5331 60.2519 57.7528 60.6534C57.9725 61.0511 58.0824 61.5682 58.0824 62.2045V68H56.4233V66.8068H56.3551C56.2453 67.0265 56.0805 67.2424 55.8608 67.4545C55.6411 67.6667 55.3589 67.8428 55.0142 67.983C54.6695 68.1231 54.2566 68.1932 53.7756 68.1932ZM54.1449 66.8295C54.6146 66.8295 55.0161 66.7367 55.3494 66.5511C55.6866 66.3655 55.9422 66.1231 56.1165 65.8239C56.2945 65.5208 56.3835 65.197 56.3835 64.8523V63.7273C56.3229 63.7879 56.2055 63.8447 56.0312 63.8977C55.8608 63.947 55.6657 63.9905 55.446 64.0284C55.2263 64.0625 55.0123 64.0947 54.804 64.125C54.5956 64.1515 54.4214 64.1742 54.2812 64.1932C53.9517 64.2348 53.6506 64.3049 53.3778 64.4034C53.1089 64.5019 52.893 64.6439 52.7301 64.8295C52.571 65.0114 52.4915 65.2538 52.4915 65.5568C52.4915 65.9773 52.6468 66.2955 52.9574 66.5114C53.268 66.7235 53.6638 66.8295 54.1449 66.8295ZM62.044 56.3636V68H60.3452V56.3636H62.044Z" fill="black"/>
</svg>
