<svg width="44" height="42" viewBox="0 0 44 42" fill="none" xmlns="http://www.w3.org/2000/svg">
<rect x="11.4001" width="23.76" height="1.88811" fill="#247CBF"/>
<rect x="15.7202" y="20.7692" width="19.44" height="1.88811" fill="#247CBF"/>
<rect x="15.7202" y="26.4336" width="19.44" height="1.88811" fill="#247CBF"/>
<rect x="11.4001" y="33.986" width="23.76" height="1.88811" fill="#247CBF"/>
<rect x="2.76001" y="39.6504" width="30.24" height="1.88811" fill="#247CBF"/>
<rect x="15.7202" y="7.55244" width="19.44" height="1.88811" fill="#247CBF"/>
<rect x="2.76001" y="7.55244" width="8.64" height="1.88811" fill="#247CBF"/>
<rect x="33" y="3.77623" width="10.8" height="1.88811" fill="#247CBF"/>
<rect x="30.8398" y="33.986" width="12.96" height="1.88811" fill="#247CBF"/>
<rect x="15.7202" y="13.2168" width="19.44" height="1.88811" fill="#247CBF"/>
<rect x="9.23999" width="2.16" height="35.8741" fill="#247CBF"/>
<rect x="0.599854" y="7.55244" width="2.16" height="33.986" fill="#247CBF"/>
<rect x="41.6401" y="3.77623" width="2.16" height="32.0979" fill="#247CBF"/>
<rect x="15.7202" y="7.55244" width="2.16" height="7.55245" fill="#247CBF"/>
<rect x="15.7202" y="20.7692" width="2.16" height="7.55245" fill="#247CBF"/>
<rect x="33" y="1.88811" width="2.16" height="7.55245" fill="#247CBF"/>
<rect x="33" y="13.2168" width="2.16" height="7.55245" fill="#247CBF"/>
<rect x="33" y="26.4336" width="2.16" height="15.1049" fill="#247CBF"/>
</svg>
