<svg width="430" height="460" viewBox="0 0 430 460" fill="none" xmlns="http://www.w3.org/2000/svg">
<ellipse opacity="0.6" cx="174.308" cy="176.455" rx="174.308" ry="176.455" transform="matrix(0.930808 -0.365507 0.342393 0.939557 133.076 127.675)" fill="url(#paint0_linear_368_130)"/>
<ellipse opacity="0.6" cx="159.604" cy="154.666" rx="159.604" ry="154.666" transform="matrix(0.271722 0.962376 -0.956703 0.291066 165.939 43)" fill="url(#paint1_linear_368_130)"/>
<ellipse opacity="0.6" cx="133.552" cy="133.933" rx="133.552" ry="133.933" transform="matrix(-0.676434 -0.736503 0.710773 -0.703422 55.6831 389.146)" fill="url(#paint2_linear_368_130)"/>
<path opacity="0.6" d="M203.562 359.965C174.533 307.586 191.906 240.695 242.366 210.562C292.826 180.428 357.264 198.462 386.294 250.842C415.323 303.222 397.95 370.112 347.49 400.246C297.03 430.379 232.591 412.345 203.562 359.965Z" fill="url(#paint3_linear_368_130)"/>
<defs>
<linearGradient id="paint0_linear_368_130" x1="306.578" y1="111.755" x2="81.685" y2="185.794" gradientUnits="userSpaceOnUse">
<stop stop-color="white" stop-opacity="0.2"/>
<stop offset="1" stop-color="white" stop-opacity="0"/>
</linearGradient>
<linearGradient id="paint1_linear_368_130" x1="315.328" y1="167.146" x2="172.84" y2="121.086" gradientUnits="userSpaceOnUse">
<stop stop-color="white" stop-opacity="0.2"/>
<stop offset="1" stop-color="white" stop-opacity="0"/>
</linearGradient>
<linearGradient id="paint2_linear_368_130" x1="234.895" y1="84.8241" x2="128.918" y2="83.6295" gradientUnits="userSpaceOnUse">
<stop stop-color="white" stop-opacity="0.2"/>
<stop offset="1" stop-color="white" stop-opacity="0"/>
</linearGradient>
<linearGradient id="paint3_linear_368_130" x1="186.976" y1="273.422" x2="239.475" y2="209.567" gradientUnits="userSpaceOnUse">
<stop stop-color="white" stop-opacity="0.2"/>
<stop offset="1" stop-color="white" stop-opacity="0"/>
</linearGradient>
</defs>
</svg>
