<svg width="43" height="53" viewBox="0 0 43 53" fill="none" xmlns="http://www.w3.org/2000/svg">
<rect x="11.45" width="20.79" height="1.68182" fill="white"/>
<rect x="15.2299" y="18.5" width="17.01" height="1.68182" fill="white"/>
<rect x="15.2299" y="23.5454" width="17.01" height="1.68182" fill="white"/>
<rect x="11.45" y="30.2727" width="20.79" height="1.68182" fill="white"/>
<rect x="3.89001" y="35.3181" width="26.4599" height="1.68182" fill="white"/>
<rect x="15.2299" y="6.72729" width="17.01" height="1.68182" fill="white"/>
<rect x="3.89001" y="6.72729" width="7.55999" height="1.68182" fill="white"/>
<rect x="30.35" y="3.36353" width="9.44998" height="1.68182" fill="white"/>
<rect x="28.4599" y="30.2727" width="11.34" height="1.68182" fill="white"/>
<rect x="15.2299" y="11.7727" width="17.01" height="1.68182" fill="white"/>
<rect x="9.56" width="1.89" height="31.9545" fill="white"/>
<rect x="2" y="6.72729" width="1.89" height="30.2727" fill="white"/>
<rect x="37.9099" y="3.36353" width="1.89" height="28.5909" fill="white"/>
<rect x="15.2299" y="6.72729" width="1.89" height="6.72727" fill="white"/>
<rect x="15.2299" y="18.5" width="1.89" height="6.72727" fill="white"/>
<rect x="30.35" y="1.68188" width="1.89" height="6.72727" fill="white"/>
<rect x="30.35" y="11.7727" width="1.89" height="6.72727" fill="white"/>
<rect x="30.35" y="23.5454" width="1.89" height="13.4545" fill="white"/>
<path d="M3.37109 50.1211C2.77995 50.1211 2.27083 49.9948 1.84375 49.7422C1.41927 49.487 1.09115 49.1289 0.859375 48.668C0.630208 48.2044 0.515625 47.6615 0.515625 47.0391C0.515625 46.4245 0.630208 45.8828 0.859375 45.4141C1.09115 44.9453 1.41406 44.5794 1.82813 44.3164C2.24479 44.0534 2.73177 43.9219 3.28906 43.9219C3.6276 43.9219 3.95573 43.9779 4.27344 44.0898C4.59115 44.2018 4.8763 44.3776 5.12891 44.6172C5.38151 44.8568 5.58073 45.168 5.72656 45.5508C5.8724 45.931 5.94531 46.3932 5.94531 46.9375V47.3516H1.17578V46.4766H4.80078C4.80078 46.1693 4.73828 45.8971 4.61328 45.6602C4.48828 45.4206 4.3125 45.2318 4.08594 45.0937C3.86198 44.9557 3.59896 44.8867 3.29687 44.8867C2.96875 44.8867 2.68229 44.9674 2.4375 45.1289C2.19531 45.2878 2.00781 45.4961 1.875 45.7539C1.74479 46.0091 1.67969 46.2865 1.67969 46.5859V47.2695C1.67969 47.6706 1.75 48.0117 1.89062 48.293C2.03385 48.5742 2.23307 48.7891 2.48828 48.9375C2.74349 49.0833 3.04167 49.1562 3.38281 49.1562C3.60417 49.1562 3.80599 49.125 3.98828 49.0625C4.17057 48.9974 4.32813 48.901 4.46094 48.7734C4.59375 48.6458 4.69531 48.4883 4.76563 48.3008L5.87109 48.5C5.78255 48.8255 5.6237 49.1107 5.39453 49.3555C5.16797 49.5977 4.88281 49.7865 4.53906 49.9219C4.19792 50.0547 3.80859 50.1211 3.37109 50.1211ZM8.01074 50H6.72949L9.6084 42H11.0029L13.8818 50H12.6006L10.3389 43.4531H10.2764L8.01074 50ZM8.22559 46.8672H12.3818V47.8828H8.22559V46.8672ZM16.1113 46.4375V50H14.9434V44H16.0645V44.9766H16.1387C16.2767 44.6589 16.4928 44.4036 16.7871 44.2109C17.084 44.0182 17.4577 43.9219 17.9082 43.9219C18.3171 43.9219 18.6751 44.0078 18.9824 44.1797C19.2897 44.349 19.528 44.6016 19.6973 44.9375C19.8665 45.2734 19.9512 45.6888 19.9512 46.1836V50H18.7832V46.3242C18.7832 45.8893 18.6699 45.5495 18.4434 45.3047C18.2168 45.0573 17.9056 44.9336 17.5098 44.9336C17.2389 44.9336 16.998 44.9922 16.7871 45.1094C16.5788 45.2266 16.4134 45.3984 16.291 45.625C16.1712 45.849 16.1113 46.1198 16.1113 46.4375ZM21.5176 50V44H22.6855V50H21.5176ZM22.1074 43.0742C21.9043 43.0742 21.7298 43.0065 21.584 42.8711C21.4408 42.7331 21.3691 42.569 21.3691 42.3789C21.3691 42.1862 21.4408 42.0221 21.584 41.8867C21.7298 41.7487 21.9043 41.6797 22.1074 41.6797C22.3105 41.6797 22.4837 41.7487 22.627 41.8867C22.7728 42.0221 22.8457 42.1862 22.8457 42.3789C22.8457 42.569 22.7728 42.7331 22.627 42.8711C22.4837 43.0065 22.3105 43.0742 22.1074 43.0742ZM24.2568 50V44H25.3779V44.9766H25.4521C25.5771 44.6458 25.7816 44.388 26.0654 44.2031C26.3493 44.0156 26.6891 43.9219 27.085 43.9219C27.486 43.9219 27.8219 44.0156 28.0928 44.2031C28.3662 44.3906 28.568 44.6484 28.6982 44.9766H28.7607C28.904 44.6562 29.1318 44.401 29.4443 44.2109C29.7568 44.0182 30.1292 43.9219 30.5615 43.9219C31.1058 43.9219 31.5498 44.0924 31.8936 44.4336C32.2399 44.7747 32.4131 45.2891 32.4131 45.9766V50H31.2451V46.0859C31.2451 45.6797 31.1344 45.3854 30.9131 45.2031C30.6917 45.0208 30.4274 44.9297 30.1201 44.9297C29.7399 44.9297 29.4443 45.0469 29.2334 45.2812C29.0225 45.513 28.917 45.8112 28.917 46.1758V50H27.7529V46.0117C27.7529 45.6862 27.6514 45.4245 27.4482 45.2266C27.2451 45.0286 26.9808 44.9297 26.6553 44.9297C26.4339 44.9297 26.2295 44.9883 26.042 45.1055C25.8571 45.2201 25.7074 45.3802 25.5928 45.5859C25.4808 45.7917 25.4248 46.0299 25.4248 46.3008V50H24.2568ZM35.7246 50.1328C35.3444 50.1328 35.0007 50.0625 34.6934 49.9219C34.3861 49.7786 34.1426 49.5716 33.9629 49.3008C33.7858 49.0299 33.6973 48.6979 33.6973 48.3047C33.6973 47.9661 33.7624 47.6875 33.8926 47.4687C34.0228 47.25 34.1986 47.0768 34.4199 46.9492C34.6413 46.8216 34.8887 46.7253 35.1621 46.6602C35.4355 46.5951 35.7142 46.5456 35.998 46.5117C36.3574 46.4701 36.6491 46.4362 36.873 46.4102C37.097 46.3815 37.2598 46.3359 37.3613 46.2734C37.4629 46.2109 37.5137 46.1094 37.5137 45.9687V45.9414C37.5137 45.6003 37.4173 45.3359 37.2246 45.1484C37.0345 44.9609 36.7507 44.8672 36.373 44.8672C35.9798 44.8672 35.6699 44.9544 35.4434 45.1289C35.2194 45.3008 35.0645 45.4922 34.9785 45.7031L33.8809 45.4531C34.0111 45.0885 34.2012 44.7943 34.4512 44.5703C34.7038 44.3437 34.9941 44.1797 35.3223 44.0781C35.6504 43.974 35.9954 43.9219 36.3574 43.9219C36.597 43.9219 36.8509 43.9505 37.1191 44.0078C37.39 44.0625 37.6426 44.1641 37.877 44.3125C38.1139 44.4609 38.3079 44.6732 38.459 44.9492C38.61 45.2227 38.6855 45.5781 38.6855 46.0156V50H37.5449V49.1797H37.498C37.4225 49.3307 37.3092 49.4792 37.1582 49.625C37.0072 49.7708 36.8132 49.8919 36.5762 49.9883C36.3392 50.0846 36.0553 50.1328 35.7246 50.1328ZM35.9785 49.1953C36.3014 49.1953 36.5775 49.1315 36.8066 49.0039C37.0384 48.8763 37.2142 48.7096 37.334 48.5039C37.4564 48.2956 37.5176 48.0729 37.5176 47.8359V47.0625C37.4759 47.1042 37.3952 47.1432 37.2754 47.1797C37.1582 47.2135 37.0241 47.2435 36.873 47.2695C36.722 47.293 36.5749 47.3151 36.4316 47.3359C36.2884 47.3542 36.1686 47.3698 36.0723 47.3828C35.8457 47.4115 35.6387 47.4596 35.4512 47.5273C35.2663 47.5951 35.1178 47.6927 35.0059 47.8203C34.8965 47.9453 34.8418 48.112 34.8418 48.3203C34.8418 48.6094 34.9486 48.8281 35.1621 48.9766C35.3757 49.1224 35.6478 49.1953 35.9785 49.1953ZM41.4092 42V50H40.2412V42H41.4092Z" fill="white"/>
</svg>
